# xmcd CD database file
#
# Track frame offsets:
#	150
#	26286
#	45572
#	58267
#	78636
#	106339
#	140751
#	148535
#	171997
#	199488
#	217582
#	238285
#
# Disc length: 3650 seconds
#
# Revision: 1
# Processed by: cddbd v1.5.2PL0 Copyright (c) Steve Scherf et al.
# Submitted via: CDex 1.75
#
DISCID=b10e400c
DTITLE=Zac Brown Band - Pass The Jar [CD2]
DYEAR=2010
DGENRE=Country
TTITLE0=Can't You See (feat. Kid Rock)
TTITLE1=Highway 20 Ride
TTITLE2=Whiskey's Gone
TTITLE3=Colder Weather (feat. Little Big Town)
TTITLE4=Junkyard (feat. Angie Aparo)
TTITLE5=Free - Intro the Mystic (feat. Joey+Rory)
TTITLE6=America The Beautiful
TTITLE7=Chicken Fried
TTITLE8=I Shall Be Released
TTITLE9=Bar (feat. Sonia Leigh)
TTITLE10=Toes (feat. Shawn Mullins)
TTITLE11=We're Gonna Make This Day (feat. Massif)
EXTD=YEAR: 2010
EXTT0=
EXTT1=
EXTT2=
EXTT3=
EXTT4=
EXTT5=
EXTT6=
EXTT7=
EXTT8=
EXTT9=
EXTT10=
EXTT11=
PLAYORDER=
